<mxfile host="Electron" agent="Mozilla/5.0 (Macintosh; Intel Mac OS X 10_15_7) AppleWebKit/537.36 (KHTML, like Gecko) draw.io/25.0.2 Chrome/128.0.6613.186 Electron/32.2.5 Safari/537.36" version="25.0.2">
  <diagram name="第 1 页" id="1qMC09TVraXjU8VvE1yM">
    <mxGraphModel dx="1066" dy="1068" grid="1" gridSize="10" guides="1" tooltips="1" connect="1" arrows="1" fold="1" page="1" pageScale="1" pageWidth="1169" pageHeight="827" math="0" shadow="0">
      <root>
        <mxCell id="0" />
        <mxCell id="1" parent="0" />
        <mxCell id="IGvgR7WPnEukZyk-TeWp-23" value="" style="rounded=0;whiteSpace=wrap;html=1;strokeColor=none;fontFamily=Helvetica;fontSize=11;fontColor=default;labelBackgroundColor=default;" vertex="1" parent="1">
          <mxGeometry x="70" y="70" width="730" height="350" as="geometry" />
        </mxCell>
        <mxCell id="IGvgR7WPnEukZyk-TeWp-2" value="&lt;span&gt;&lt;span&gt;&lt;font&gt;Buffer&lt;/font&gt;&lt;/span&gt;&lt;/span&gt;" style="rounded=1;whiteSpace=wrap;html=1;fillColor=#d5e8d4;strokeColor=#82b366;sketch=1;curveFitting=1;jiggle=2;fontFamily=Comic Sans MS;labelBackgroundColor=none;fontStyle=1;fontSize=16;" vertex="1" parent="1">
          <mxGeometry x="665" y="170" width="100" height="50" as="geometry" />
        </mxCell>
        <mxCell id="IGvgR7WPnEukZyk-TeWp-8" style="edgeStyle=orthogonalEdgeStyle;rounded=0;orthogonalLoop=1;jettySize=auto;html=1;exitX=0.5;exitY=0;exitDx=0;exitDy=0;strokeWidth=2;endArrow=block;endFill=0;dashed=1;" edge="1" parent="1" source="IGvgR7WPnEukZyk-TeWp-4" target="IGvgR7WPnEukZyk-TeWp-2">
          <mxGeometry relative="1" as="geometry" />
        </mxCell>
        <mxCell id="IGvgR7WPnEukZyk-TeWp-4" value="&lt;div style=&quot;color: rgb(8, 8, 8);&quot;&gt;&lt;div&gt;&lt;span style=&quot;color:#000000;&quot;&gt;StripedBuffer&lt;/span&gt;&lt;/div&gt;&lt;/div&gt;" style="rounded=1;whiteSpace=wrap;html=1;fillColor=#f5f5f5;strokeColor=#666666;sketch=1;curveFitting=1;jiggle=2;fontFamily=Comic Sans MS;labelBackgroundColor=none;fontStyle=1;fontSize=16;fontColor=#333333;" vertex="1" parent="1">
          <mxGeometry x="655" y="260" width="120" height="50" as="geometry" />
        </mxCell>
        <mxCell id="IGvgR7WPnEukZyk-TeWp-9" style="edgeStyle=orthogonalEdgeStyle;shape=connector;rounded=0;orthogonalLoop=1;jettySize=auto;html=1;exitX=0.5;exitY=0;exitDx=0;exitDy=0;strokeColor=default;strokeWidth=2;align=center;verticalAlign=middle;fontFamily=Helvetica;fontSize=11;fontColor=default;labelBackgroundColor=default;endArrow=block;endFill=0;" edge="1" parent="1" source="IGvgR7WPnEukZyk-TeWp-7" target="IGvgR7WPnEukZyk-TeWp-4">
          <mxGeometry relative="1" as="geometry" />
        </mxCell>
        <mxCell id="IGvgR7WPnEukZyk-TeWp-21" style="edgeStyle=orthogonalEdgeStyle;shape=connector;rounded=0;orthogonalLoop=1;jettySize=auto;html=1;strokeColor=default;strokeWidth=2;align=center;verticalAlign=middle;fontFamily=Helvetica;fontSize=11;fontColor=default;labelBackgroundColor=default;endArrow=open;endFill=0;" edge="1" parent="1" source="IGvgR7WPnEukZyk-TeWp-7" target="IGvgR7WPnEukZyk-TeWp-19">
          <mxGeometry relative="1" as="geometry" />
        </mxCell>
        <mxCell id="IGvgR7WPnEukZyk-TeWp-7" value="&lt;div style=&quot;color: rgb(8, 8, 8);&quot;&gt;&lt;div&gt;&lt;span style=&quot;color:#000000;&quot;&gt;BoundBuffer&lt;/span&gt;&lt;/div&gt;&lt;/div&gt;" style="rounded=1;whiteSpace=wrap;html=1;fillColor=#dae8fc;strokeColor=#6c8ebf;sketch=1;curveFitting=1;jiggle=2;fontFamily=Comic Sans MS;labelBackgroundColor=none;fontStyle=1;fontSize=16;" vertex="1" parent="1">
          <mxGeometry x="655" y="350" width="120" height="50" as="geometry" />
        </mxCell>
        <mxCell id="IGvgR7WPnEukZyk-TeWp-10" value="&lt;div style=&quot;color: rgb(8, 8, 8);&quot;&gt;&lt;div&gt;&lt;span style=&quot;color:#000000;&quot;&gt;BBHeader&lt;/span&gt;&lt;/div&gt;&lt;/div&gt;" style="rounded=1;whiteSpace=wrap;html=1;fillColor=#dae8fc;strokeColor=#6c8ebf;sketch=1;curveFitting=1;jiggle=2;fontFamily=Comic Sans MS;labelBackgroundColor=none;fontStyle=1;fontSize=16;" vertex="1" parent="1">
          <mxGeometry x="80" y="215" width="120" height="50" as="geometry" />
        </mxCell>
        <mxCell id="IGvgR7WPnEukZyk-TeWp-11" value="&lt;div style=&quot;color: rgb(8, 8, 8);&quot;&gt;&lt;div&gt;&lt;span style=&quot;color:#000000;&quot;&gt;PadReadCounter&lt;/span&gt;&lt;/div&gt;&lt;/div&gt;" style="rounded=1;whiteSpace=wrap;html=1;fillColor=#f5f5f5;strokeColor=#666666;sketch=1;curveFitting=1;jiggle=2;fontFamily=Comic Sans MS;labelBackgroundColor=none;fontStyle=1;fontSize=16;fontColor=#333333;" vertex="1" parent="1">
          <mxGeometry x="260" y="80" width="160" height="50" as="geometry" />
        </mxCell>
        <mxCell id="IGvgR7WPnEukZyk-TeWp-13" style="edgeStyle=orthogonalEdgeStyle;shape=connector;rounded=0;orthogonalLoop=1;jettySize=auto;html=1;exitX=0.5;exitY=0;exitDx=0;exitDy=0;entryX=0.5;entryY=1;entryDx=0;entryDy=0;strokeColor=default;strokeWidth=2;align=center;verticalAlign=middle;fontFamily=Helvetica;fontSize=11;fontColor=default;labelBackgroundColor=default;endArrow=block;endFill=0;" edge="1" parent="1" source="IGvgR7WPnEukZyk-TeWp-12" target="IGvgR7WPnEukZyk-TeWp-11">
          <mxGeometry relative="1" as="geometry" />
        </mxCell>
        <mxCell id="IGvgR7WPnEukZyk-TeWp-12" value="&lt;div style=&quot;color: rgb(8, 8, 8);&quot;&gt;&lt;div&gt;&lt;span style=&quot;color:#000000;&quot;&gt;ReadCounterRef&lt;/span&gt;&lt;/div&gt;&lt;/div&gt;" style="rounded=1;whiteSpace=wrap;html=1;fillColor=#f5f5f5;strokeColor=#666666;sketch=1;curveFitting=1;jiggle=2;fontFamily=Comic Sans MS;labelBackgroundColor=none;fontStyle=1;fontSize=16;fontColor=#333333;" vertex="1" parent="1">
          <mxGeometry x="260" y="170" width="160" height="50" as="geometry" />
        </mxCell>
        <mxCell id="IGvgR7WPnEukZyk-TeWp-15" style="edgeStyle=orthogonalEdgeStyle;shape=connector;rounded=0;orthogonalLoop=1;jettySize=auto;html=1;exitX=0.5;exitY=0;exitDx=0;exitDy=0;strokeColor=default;strokeWidth=2;align=center;verticalAlign=middle;fontFamily=Helvetica;fontSize=11;fontColor=default;labelBackgroundColor=default;endArrow=block;endFill=0;" edge="1" parent="1" source="IGvgR7WPnEukZyk-TeWp-14" target="IGvgR7WPnEukZyk-TeWp-12">
          <mxGeometry relative="1" as="geometry" />
        </mxCell>
        <mxCell id="IGvgR7WPnEukZyk-TeWp-14" value="&lt;div style=&quot;color: rgb(8, 8, 8);&quot;&gt;&lt;div&gt;&lt;span style=&quot;color:#000000;&quot;&gt;PadWriteCounter&lt;/span&gt;&lt;/div&gt;&lt;/div&gt;" style="rounded=1;whiteSpace=wrap;html=1;fillColor=#f5f5f5;strokeColor=#666666;sketch=1;curveFitting=1;jiggle=2;fontFamily=Comic Sans MS;labelBackgroundColor=none;fontStyle=1;fontSize=16;fontColor=#333333;" vertex="1" parent="1">
          <mxGeometry x="260" y="260" width="160" height="50" as="geometry" />
        </mxCell>
        <mxCell id="IGvgR7WPnEukZyk-TeWp-17" style="edgeStyle=orthogonalEdgeStyle;shape=connector;rounded=0;orthogonalLoop=1;jettySize=auto;html=1;exitX=0.5;exitY=0;exitDx=0;exitDy=0;strokeColor=default;strokeWidth=2;align=center;verticalAlign=middle;fontFamily=Helvetica;fontSize=11;fontColor=default;labelBackgroundColor=default;endArrow=block;endFill=0;" edge="1" parent="1" source="IGvgR7WPnEukZyk-TeWp-16" target="IGvgR7WPnEukZyk-TeWp-14">
          <mxGeometry relative="1" as="geometry" />
        </mxCell>
        <mxCell id="IGvgR7WPnEukZyk-TeWp-16" value="&lt;div style=&quot;&quot;&gt;&lt;font color=&quot;#000000&quot;&gt;ReadAndWriteCounterRef&lt;/font&gt;&lt;/div&gt;" style="rounded=1;whiteSpace=wrap;html=1;fillColor=#f5f5f5;strokeColor=#666666;sketch=1;curveFitting=1;jiggle=2;fontFamily=Comic Sans MS;labelBackgroundColor=none;fontStyle=1;fontSize=16;fontColor=#333333;" vertex="1" parent="1">
          <mxGeometry x="235" y="350" width="210" height="50" as="geometry" />
        </mxCell>
        <mxCell id="IGvgR7WPnEukZyk-TeWp-18" value="" style="shape=curlyBracket;whiteSpace=wrap;html=1;rounded=1;labelPosition=left;verticalLabelPosition=middle;align=right;verticalAlign=middle;fontFamily=Helvetica;fontSize=11;fontColor=default;labelBackgroundColor=default;strokeWidth=2;" vertex="1" parent="1">
          <mxGeometry x="210" y="80" width="20" height="320" as="geometry" />
        </mxCell>
        <mxCell id="IGvgR7WPnEukZyk-TeWp-20" style="edgeStyle=orthogonalEdgeStyle;shape=connector;rounded=0;orthogonalLoop=1;jettySize=auto;html=1;exitX=0.5;exitY=0;exitDx=0;exitDy=0;entryX=0;entryY=0.5;entryDx=0;entryDy=0;strokeColor=default;strokeWidth=2;align=center;verticalAlign=middle;fontFamily=Helvetica;fontSize=11;fontColor=default;labelBackgroundColor=default;endArrow=block;endFill=0;dashed=1;" edge="1" parent="1" source="IGvgR7WPnEukZyk-TeWp-19" target="IGvgR7WPnEukZyk-TeWp-2">
          <mxGeometry relative="1" as="geometry" />
        </mxCell>
        <mxCell id="IGvgR7WPnEukZyk-TeWp-22" style="edgeStyle=orthogonalEdgeStyle;shape=connector;rounded=0;orthogonalLoop=1;jettySize=auto;html=1;exitX=0;exitY=0.5;exitDx=0;exitDy=0;entryX=1;entryY=0.5;entryDx=0;entryDy=0;strokeColor=default;strokeWidth=2;align=center;verticalAlign=middle;fontFamily=Helvetica;fontSize=11;fontColor=default;labelBackgroundColor=default;endArrow=block;endFill=0;" edge="1" parent="1" source="IGvgR7WPnEukZyk-TeWp-19" target="IGvgR7WPnEukZyk-TeWp-16">
          <mxGeometry relative="1" as="geometry" />
        </mxCell>
        <mxCell id="IGvgR7WPnEukZyk-TeWp-19" value="&lt;div style=&quot;color: rgb(8, 8, 8);&quot;&gt;&lt;div&gt;&lt;span style=&quot;color:#000000;&quot;&gt;RingBuffer&lt;/span&gt;&lt;/div&gt;&lt;/div&gt;" style="rounded=1;whiteSpace=wrap;html=1;fillColor=#dae8fc;strokeColor=#6c8ebf;sketch=1;curveFitting=1;jiggle=2;fontFamily=Comic Sans MS;labelBackgroundColor=none;fontStyle=1;fontSize=16;" vertex="1" parent="1">
          <mxGeometry x="490" y="350" width="120" height="50" as="geometry" />
        </mxCell>
      </root>
    </mxGraphModel>
  </diagram>
</mxfile>
